# MagicaVoxel @ Ephtracy

# group
g skatebord

# material
mtllib skatebord.mtl
usemtl palette

# normals
vn -1 0 0
vn 1 0 0
vn 0 0 1
vn 0 0 -1
vn 0 -1 0
vn 0 1 0

# texcoords
vt 0.306641 0.5
vt 0.978516 0.5
vt 0.982422 0.5
vt 0.994141 0.5

# verts
v -20 13 6
v -20 13 -1
v -20 14 6
v -20 14 -1
v -19 12 6
v -19 12 -1
v -19 13 7
v -19 13 6
v -19 13 -1
v -19 13 -2
v -19 14 7
v -19 14 6
v -19 14 -1
v -19 14 -2
v -18 11 6
v -18 11 -1
v -18 12 7
v -18 12 6
v -18 12 -1
v -18 12 -2
v -18 13 7
v -18 13 6
v -18 13 -1
v -18 13 -2
v -17 11 7
v -17 11 6
v -17 11 -1
v -17 11 -2
v -17 12 8
v -17 12 7
v -17 12 6
v -17 12 -1
v -17 12 -2
v -17 12 -3
v -17 13 8
v -17 13 7
v -17 13 -2
v -17 13 -3
v -15 11 8
v -15 11 7
v -15 11 -2
v -15 11 -3
v -15 12 8
v -15 12 7
v -15 12 -2
v -15 12 -3
v -14 11 9
v -14 11 8
v -14 11 -3
v -14 11 -4
v -14 12 9
v -14 12 8
v -14 12 -3
v -14 12 -4
v -13 8 8
v -13 8 7
v -13 8 -3
v -13 8 -4
v -13 10 3
v -13 10 1
v -13 11 10
v -13 11 9
v -13 11 8
v -13 11 7
v -13 11 3
v -13 11 1
v -13 11 -3
v -13 11 -4
v -13 11 -5
v -13 12 10
v -13 12 9
v -13 12 -4
v -13 12 -5
v -12 9 7
v -12 9 -3
v -12 10 7
v -12 10 3
v -12 10 1
v -12 10 -3
v 11 8 8
v 11 8 7
v 11 8 -3
v 11 8 -4
v 11 10 3
v 11 10 1
v 11 11 8
v 11 11 7
v 11 11 3
v 11 11 1
v 11 11 -3
v 11 11 -4
v 12 9 7
v 12 9 -3
v 12 10 7
v 12 10 3
v 12 10 1
v 12 10 -3
v 16 12 8
v 16 12 -3
v 16 13 8
v 16 13 -3
v 18 13 7
v 18 13 -2
v 18 14 7
v 18 14 -2
v -18 13 7
v -18 13 -2
v -18 14 7
v -18 14 -2
v -15 12 8
v -15 12 -3
v -15 13 8
v -15 13 -3
v -11 9 7
v -11 9 -3
v -11 10 7
v -11 10 3
v -11 10 1
v -11 10 -3
v -10 8 8
v -10 8 7
v -10 8 -3
v -10 8 -4
v -10 10 3
v -10 10 1
v -10 11 8
v -10 11 7
v -10 11 3
v -10 11 1
v -10 11 -3
v -10 11 -4
v 13 9 7
v 13 9 -3
v 13 10 7
v 13 10 3
v 13 10 1
v 13 10 -3
v 14 8 8
v 14 8 7
v 14 8 -3
v 14 8 -4
v 14 10 3
v 14 10 1
v 14 11 10
v 14 11 9
v 14 11 8
v 14 11 7
v 14 11 3
v 14 11 1
v 14 11 -3
v 14 11 -4
v 14 11 -5
v 14 12 10
v 14 12 9
v 14 12 -4
v 14 12 -5
v 16 11 9
v 16 11 8
v 16 11 -3
v 16 11 -4
v 16 12 9
v 16 12 8
v 16 12 -3
v 16 12 -4
v 17 11 8
v 17 11 7
v 17 11 -2
v 17 11 -3
v 17 12 8
v 17 12 7
v 17 12 -2
v 17 12 -3
v 18 11 7
v 18 11 -2
v 18 12 8
v 18 12 7
v 18 12 -2
v 18 12 -3
v 18 13 8
v 18 13 7
v 18 13 -2
v 18 13 -3
v 19 12 7
v 19 12 -2
v 19 13 6
v 19 13 -1
v 19 14 7
v 19 14 6
v 19 14 -1
v 19 14 -2
v 20 13 6
v 20 13 -1
v 20 14 6
v 20 14 -1
v -13 11 10
v -13 12 10
v 14 11 10
v 14 12 10
v -14 11 9
v -14 12 9
v -13 11 9
v -13 12 9
v 14 11 9
v 14 12 9
v 16 11 9
v 16 12 9
v -17 12 8
v -17 13 8
v -15 11 8
v -15 12 8
v -15 13 8
v -14 11 8
v -14 12 8
v -13 8 8
v -13 11 8
v -10 8 8
v -10 11 8
v 11 8 8
v 11 11 8
v 14 8 8
v 14 11 8
v 16 11 8
v 16 12 8
v 16 13 8
v 17 11 8
v 17 12 8
v 18 12 8
v 18 13 8
v -19 13 7
v -19 14 7
v -18 12 7
v -18 13 7
v -18 14 7
v -17 11 7
v -17 12 7
v -17 13 7
v -15 11 7
v -15 12 7
v 17 11 7
v 17 12 7
v 18 11 7
v 18 12 7
v 18 13 7
v 18 14 7
v 19 12 7
v 19 14 7
v -20 13 6
v -20 14 6
v -19 12 6
v -19 13 6
v -19 14 6
v -18 11 6
v -18 12 6
v -18 13 6
v -17 11 6
v -17 12 6
v 19 13 6
v 19 14 6
v 20 13 6
v 20 14 6
v -13 10 3
v -13 11 3
v -12 10 3
v -11 10 3
v -10 10 3
v -10 11 3
v 11 10 3
v 11 11 3
v 12 10 3
v 13 10 3
v 14 10 3
v 14 11 3
v -13 8 -3
v -13 11 -3
v -12 9 -3
v -12 10 -3
v -11 9 -3
v -11 10 -3
v -10 8 -3
v -10 11 -3
v 11 8 -3
v 11 11 -3
v 12 9 -3
v 12 10 -3
v 13 9 -3
v 13 10 -3
v 14 8 -3
v 14 11 -3
v -13 8 7
v -13 11 7
v -12 9 7
v -12 10 7
v -11 9 7
v -11 10 7
v -10 8 7
v -10 11 7
v 11 8 7
v 11 11 7
v 12 9 7
v 12 10 7
v 13 9 7
v 13 10 7
v 14 8 7
v 14 11 7
v -13 10 1
v -13 11 1
v -12 10 1
v -11 10 1
v -10 10 1
v -10 11 1
v 11 10 1
v 11 11 1
v 12 10 1
v 13 10 1
v 14 10 1
v 14 11 1
v -20 13 -1
v -20 14 -1
v -19 12 -1
v -19 13 -1
v -19 14 -1
v -18 11 -1
v -18 12 -1
v -18 13 -1
v -17 11 -1
v -17 12 -1
v 19 13 -1
v 19 14 -1
v 20 13 -1
v 20 14 -1
v -19 13 -2
v -19 14 -2
v -18 12 -2
v -18 13 -2
v -18 14 -2
v -17 11 -2
v -17 12 -2
v -17 13 -2
v -15 11 -2
v -15 12 -2
v 17 11 -2
v 17 12 -2
v 18 11 -2
v 18 12 -2
v 18 13 -2
v 18 14 -2
v 19 12 -2
v 19 14 -2
v -17 12 -3
v -17 13 -3
v -15 11 -3
v -15 12 -3
v -15 13 -3
v -14 11 -3
v -14 12 -3
v 16 11 -3
v 16 12 -3
v 16 13 -3
v 17 11 -3
v 17 12 -3
v 18 12 -3
v 18 13 -3
v -14 11 -4
v -14 12 -4
v -13 8 -4
v -13 11 -4
v -13 12 -4
v -10 8 -4
v -10 11 -4
v 11 8 -4
v 11 11 -4
v 14 8 -4
v 14 11 -4
v 14 12 -4
v 16 11 -4
v 16 12 -4
v -13 11 -5
v -13 12 -5
v 14 11 -5
v 14 12 -5
v -13 8 8
v -10 8 8
v 11 8 8
v 14 8 8
v -13 8 7
v -10 8 7
v 11 8 7
v 14 8 7
v -13 8 -3
v -10 8 -3
v 11 8 -3
v 14 8 -3
v -13 8 -4
v -10 8 -4
v 11 8 -4
v 14 8 -4
v -12 9 7
v -11 9 7
v 12 9 7
v 13 9 7
v -12 9 -3
v -11 9 -3
v 12 9 -3
v 13 9 -3
v -13 10 3
v -12 10 3
v -11 10 3
v -10 10 3
v 11 10 3
v 12 10 3
v 13 10 3
v 14 10 3
v -13 10 1
v -12 10 1
v -11 10 1
v -10 10 1
v 11 10 1
v 12 10 1
v 13 10 1
v 14 10 1
v -13 11 10
v 14 11 10
v -14 11 9
v -13 11 9
v 14 11 9
v 16 11 9
v -15 11 8
v -14 11 8
v -13 11 8
v -10 11 8
v 11 11 8
v 14 11 8
v 16 11 8
v 17 11 8
v -17 11 7
v -15 11 7
v -13 11 7
v -10 11 7
v 11 11 7
v 14 11 7
v 17 11 7
v 18 11 7
v -18 11 6
v -17 11 6
v -13 11 3
v -10 11 3
v 11 11 3
v 14 11 3
v -13 11 1
v -10 11 1
v 11 11 1
v 14 11 1
v -18 11 -1
v -17 11 -1
v -17 11 -2
v -15 11 -2
v 17 11 -2
v 18 11 -2
v -15 11 -3
v -14 11 -3
v -13 11 -3
v -10 11 -3
v 11 11 -3
v 14 11 -3
v 16 11 -3
v 17 11 -3
v -14 11 -4
v -13 11 -4
v -10 11 -4
v 11 11 -4
v 14 11 -4
v 16 11 -4
v -13 11 -5
v 14 11 -5
v -17 12 8
v -15 12 8
v 17 12 8
v 18 12 8
v -18 12 7
v -17 12 7
v -15 12 7
v 17 12 7
v 18 12 7
v 19 12 7
v -19 12 6
v -18 12 6
v -17 12 6
v -19 12 -1
v -18 12 -1
v -17 12 -1
v -18 12 -2
v -17 12 -2
v -15 12 -2
v 17 12 -2
v 18 12 -2
v 19 12 -2
v -17 12 -3
v -15 12 -3
v 17 12 -3
v 18 12 -3
v -19 13 7
v -18 13 7
v -20 13 6
v -19 13 6
v -18 13 6
v 19 13 6
v 20 13 6
v -20 13 -1
v -19 13 -1
v -18 13 -1
v 19 13 -1
v 20 13 -1
v -19 13 -2
v -18 13 -2
v -12 10 7
v -11 10 7
v 12 10 7
v 13 10 7
v -12 10 3
v -11 10 3
v 12 10 3
v 13 10 3
v -12 10 1
v -11 10 1
v 12 10 1
v 13 10 1
v -12 10 -3
v -11 10 -3
v 12 10 -3
v 13 10 -3
v -13 12 10
v 14 12 10
v -14 12 9
v -13 12 9
v 14 12 9
v 16 12 9
v -15 12 8
v -14 12 8
v 16 12 8
v -15 12 -3
v -14 12 -3
v 16 12 -3
v -14 12 -4
v -13 12 -4
v 14 12 -4
v 16 12 -4
v -13 12 -5
v 14 12 -5
v -17 13 8
v -15 13 8
v 16 13 8
v 18 13 8
v -18 13 7
v -17 13 7
v 18 13 7
v -18 13 -2
v -17 13 -2
v 18 13 -2
v -17 13 -3
v -15 13 -3
v 16 13 -3
v 18 13 -3
v -19 14 7
v -18 14 7
v 18 14 7
v 19 14 7
v -20 14 6
v -19 14 6
v 19 14 6
v 20 14 6
v -20 14 -1
v -19 14 -1
v 19 14 -1
v 20 14 -1
v -19 14 -2
v -18 14 -2
v 18 14 -2
v 19 14 -2

# faces
f 3/1/1 2/1/1 1/1/1
f 4/1/1 2/1/1 3/1/1
f 8/1/1 6/1/1 5/1/1
f 9/1/1 6/1/1 8/1/1
f 11/1/1 8/1/1 7/1/1
f 12/1/1 8/1/1 11/1/1
f 13/1/1 10/1/1 9/1/1
f 14/1/1 10/1/1 13/1/1
f 18/1/1 16/1/1 15/1/1
f 19/1/1 16/1/1 18/1/1
f 21/1/1 18/1/1 17/1/1
f 22/1/1 18/1/1 21/1/1
f 23/1/1 20/1/1 19/1/1
f 24/1/1 20/1/1 23/1/1
f 30/1/1 26/1/1 25/1/1
f 31/1/1 26/1/1 30/1/1
f 32/1/1 28/1/1 27/1/1
f 33/1/1 28/1/1 32/1/1
f 35/1/1 30/1/1 29/1/1
f 36/1/1 30/1/1 35/1/1
f 37/1/1 34/1/1 33/1/1
f 38/1/1 34/1/1 37/1/1
f 43/1/1 40/1/1 39/1/1
f 44/1/1 40/1/1 43/1/1
f 45/1/1 42/1/1 41/1/1
f 46/1/1 42/1/1 45/1/1
f 51/1/1 48/1/1 47/1/1
f 52/1/1 48/1/1 51/1/1
f 53/1/1 50/1/1 49/1/1
f 54/1/1 50/1/1 53/1/1
f 63/4/1 56/4/1 55/4/1
f 64/4/1 56/4/1 63/4/1
f 65/2/1 60/2/1 59/2/1
f 66/2/1 60/2/1 65/2/1
f 67/4/1 58/4/1 57/4/1
f 68/4/1 58/4/1 67/4/1
f 70/1/1 62/1/1 61/1/1
f 71/1/1 62/1/1 70/1/1
f 72/1/1 69/1/1 68/1/1
f 73/1/1 69/1/1 72/1/1
f 76/2/1 75/2/1 74/2/1
f 77/2/1 75/2/1 76/2/1
f 78/2/1 75/2/1 77/2/1
f 79/2/1 75/2/1 78/2/1
f 86/4/1 81/4/1 80/4/1
f 87/4/1 81/4/1 86/4/1
f 88/3/1 85/3/1 84/3/1
f 89/3/1 85/3/1 88/3/1
f 90/4/1 83/4/1 82/4/1
f 91/4/1 83/4/1 90/4/1
f 94/3/1 93/3/1 92/3/1
f 95/3/1 93/3/1 94/3/1
f 96/3/1 93/3/1 95/3/1
f 97/3/1 93/3/1 96/3/1
f 100/1/1 99/1/1 98/1/1
f 101/1/1 99/1/1 100/1/1
f 104/1/1 103/1/1 102/1/1
f 105/1/1 103/1/1 104/1/1
f 106/1/2 107/1/2 108/1/2
f 108/1/2 107/1/2 109/1/2
f 110/1/2 111/1/2 112/1/2
f 112/1/2 111/1/2 113/1/2
f 114/2/2 115/2/2 116/2/2
f 116/2/2 115/2/2 117/2/2
f 117/2/2 115/2/2 118/2/2
f 118/2/2 115/2/2 119/2/2
f 120/4/2 121/4/2 126/4/2
f 126/4/2 121/4/2 127/4/2
f 124/2/2 125/2/2 128/2/2
f 128/2/2 125/2/2 129/2/2
f 122/4/2 123/4/2 130/4/2
f 130/4/2 123/4/2 131/4/2
f 132/3/2 133/3/2 134/3/2
f 134/3/2 133/3/2 135/3/2
f 135/3/2 133/3/2 136/3/2
f 136/3/2 133/3/2 137/3/2
f 138/4/2 139/4/2 146/4/2
f 146/4/2 139/4/2 147/4/2
f 142/3/2 143/3/2 148/3/2
f 148/3/2 143/3/2 149/3/2
f 140/4/2 141/4/2 150/4/2
f 150/4/2 141/4/2 151/4/2
f 144/1/2 145/1/2 153/1/2
f 153/1/2 145/1/2 154/1/2
f 151/1/2 152/1/2 155/1/2
f 155/1/2 152/1/2 156/1/2
f 157/1/2 158/1/2 161/1/2
f 161/1/2 158/1/2 162/1/2
f 159/1/2 160/1/2 163/1/2
f 163/1/2 160/1/2 164/1/2
f 165/1/2 166/1/2 169/1/2
f 169/1/2 166/1/2 170/1/2
f 167/1/2 168/1/2 171/1/2
f 171/1/2 168/1/2 172/1/2
f 173/1/2 174/1/2 176/1/2
f 176/1/2 174/1/2 177/1/2
f 175/1/2 176/1/2 179/1/2
f 179/1/2 176/1/2 180/1/2
f 177/1/2 178/1/2 181/1/2
f 181/1/2 178/1/2 182/1/2
f 183/1/2 184/1/2 185/1/2
f 185/1/2 184/1/2 186/1/2
f 183/1/2 185/1/2 187/1/2
f 187/1/2 185/1/2 188/1/2
f 186/1/2 184/1/2 189/1/2
f 189/1/2 184/1/2 190/1/2
f 191/1/2 192/1/2 193/1/2
f 193/1/2 192/1/2 194/1/2
f 197/1/3 196/1/3 195/1/3
f 198/1/3 196/1/3 197/1/3
f 201/1/3 200/1/3 199/1/3
f 202/1/3 200/1/3 201/1/3
f 205/1/3 204/1/3 203/1/3
f 206/1/3 204/1/3 205/1/3
f 210/1/3 208/1/3 207/1/3
f 211/1/3 208/1/3 210/1/3
f 212/1/3 210/1/3 209/1/3
f 213/1/3 210/1/3 212/1/3
f 216/4/3 215/4/3 214/4/3
f 217/4/3 215/4/3 216/4/3
f 220/4/3 219/4/3 218/4/3
f 221/4/3 219/4/3 220/4/3
f 225/1/3 223/1/3 222/1/3
f 225/1/3 224/1/3 223/1/3
f 226/1/3 224/1/3 225/1/3
f 227/1/3 224/1/3 226/1/3
f 228/1/3 224/1/3 227/1/3
f 232/1/3 230/1/3 229/1/3
f 233/1/3 230/1/3 232/1/3
f 235/1/3 232/1/3 231/1/3
f 236/1/3 232/1/3 235/1/3
f 237/1/3 235/1/3 234/1/3
f 238/1/3 235/1/3 237/1/3
f 241/1/3 240/1/3 239/1/3
f 242/1/3 240/1/3 241/1/3
f 245/1/3 243/1/3 242/1/3
f 245/1/3 244/1/3 243/1/3
f 246/1/3 244/1/3 245/1/3
f 250/1/3 248/1/3 247/1/3
f 251/1/3 248/1/3 250/1/3
f 253/1/3 250/1/3 249/1/3
f 254/1/3 250/1/3 253/1/3
f 255/1/3 253/1/3 252/1/3
f 256/1/3 253/1/3 255/1/3
f 259/1/3 258/1/3 257/1/3
f 260/1/3 258/1/3 259/1/3
f 263/2/3 262/2/3 261/2/3
f 264/2/3 262/2/3 263/2/3
f 265/2/3 262/2/3 264/2/3
f 266/2/3 262/2/3 265/2/3
f 269/3/3 268/3/3 267/3/3
f 270/3/3 268/3/3 269/3/3
f 271/3/3 268/3/3 270/3/3
f 272/3/3 268/3/3 271/3/3
f 275/4/3 274/4/3 273/4/3
f 276/4/3 274/4/3 275/4/3
f 277/4/3 275/4/3 273/4/3
f 278/4/3 274/4/3 276/4/3
f 279/4/3 277/4/3 273/4/3
f 279/4/3 278/4/3 277/4/3
f 280/4/3 274/4/3 278/4/3
f 280/4/3 278/4/3 279/4/3
f 283/4/3 282/4/3 281/4/3
f 284/4/3 282/4/3 283/4/3
f 285/4/3 283/4/3 281/4/3
f 286/4/3 282/4/3 284/4/3
f 287/4/3 285/4/3 281/4/3
f 287/4/3 286/4/3 285/4/3
f 288/4/3 282/4/3 286/4/3
f 288/4/3 286/4/3 287/4/3
f 289/4/4 290/4/4 291/4/4
f 291/4/4 290/4/4 292/4/4
f 289/4/4 291/4/4 293/4/4
f 292/4/4 290/4/4 294/4/4
f 289/4/4 293/4/4 295/4/4
f 293/4/4 294/4/4 295/4/4
f 294/4/4 290/4/4 296/4/4
f 295/4/4 294/4/4 296/4/4
f 297/4/4 298/4/4 299/4/4
f 299/4/4 298/4/4 300/4/4
f 297/4/4 299/4/4 301/4/4
f 300/4/4 298/4/4 302/4/4
f 297/4/4 301/4/4 303/4/4
f 301/4/4 302/4/4 303/4/4
f 302/4/4 298/4/4 304/4/4
f 303/4/4 302/4/4 304/4/4
f 305/2/4 306/2/4 307/2/4
f 307/2/4 306/2/4 308/2/4
f 308/2/4 306/2/4 309/2/4
f 309/2/4 306/2/4 310/2/4
f 311/3/4 312/3/4 313/3/4
f 313/3/4 312/3/4 314/3/4
f 314/3/4 312/3/4 315/3/4
f 315/3/4 312/3/4 316/3/4
f 317/1/4 318/1/4 320/1/4
f 320/1/4 318/1/4 321/1/4
f 319/1/4 320/1/4 323/1/4
f 323/1/4 320/1/4 324/1/4
f 322/1/4 323/1/4 325/1/4
f 325/1/4 323/1/4 326/1/4
f 327/1/4 328/1/4 329/1/4
f 329/1/4 328/1/4 330/1/4
f 331/1/4 332/1/4 334/1/4
f 334/1/4 332/1/4 335/1/4
f 333/1/4 334/1/4 337/1/4
f 337/1/4 334/1/4 338/1/4
f 336/1/4 337/1/4 339/1/4
f 339/1/4 337/1/4 340/1/4
f 341/1/4 342/1/4 343/1/4
f 343/1/4 342/1/4 344/1/4
f 344/1/4 345/1/4 347/1/4
f 345/1/4 346/1/4 347/1/4
f 347/1/4 346/1/4 348/1/4
f 349/1/4 350/1/4 352/1/4
f 352/1/4 350/1/4 353/1/4
f 351/1/4 352/1/4 354/1/4
f 354/1/4 352/1/4 355/1/4
f 356/1/4 357/1/4 359/1/4
f 357/1/4 358/1/4 359/1/4
f 359/1/4 358/1/4 360/1/4
f 360/1/4 358/1/4 361/1/4
f 361/1/4 358/1/4 362/1/4
f 363/1/4 364/1/4 366/1/4
f 366/1/4 364/1/4 367/1/4
f 365/4/4 366/4/4 368/4/4
f 368/4/4 366/4/4 369/4/4
f 370/4/4 371/4/4 372/4/4
f 372/4/4 371/4/4 373/4/4
f 373/1/4 374/1/4 375/1/4
f 375/1/4 374/1/4 376/1/4
f 377/1/4 378/1/4 379/1/4
f 379/1/4 378/1/4 380/1/4
f 385/4/5 382/4/5 381/4/5
f 386/4/5 382/4/5 385/4/5
f 387/4/5 384/4/5 383/4/5
f 388/4/5 384/4/5 387/4/5
f 393/4/5 390/4/5 389/4/5
f 394/4/5 390/4/5 393/4/5
f 395/4/5 392/4/5 391/4/5
f 396/4/5 392/4/5 395/4/5
f 401/2/5 398/2/5 397/2/5
f 402/2/5 398/2/5 401/2/5
f 403/3/5 400/3/5 399/3/5
f 404/3/5 400/3/5 403/3/5
f 413/2/5 406/2/5 405/2/5
f 414/2/5 406/2/5 413/2/5
f 415/2/5 408/2/5 407/2/5
f 416/2/5 408/2/5 415/2/5
f 417/3/5 410/3/5 409/3/5
f 418/3/5 410/3/5 417/3/5
f 419/3/5 412/3/5 411/3/5
f 420/3/5 412/3/5 419/3/5
f 424/1/5 422/1/5 421/1/5
f 425/1/5 422/1/5 424/1/5
f 428/1/5 424/1/5 423/1/5
f 428/1/5 426/1/5 425/1/5
f 428/1/5 425/1/5 424/1/5
f 429/1/5 426/1/5 428/1/5
f 430/1/5 426/1/5 429/1/5
f 431/1/5 426/1/5 430/1/5
f 432/1/5 426/1/5 431/1/5
f 433/1/5 426/1/5 432/1/5
f 436/1/5 428/1/5 427/1/5
f 436/1/5 429/1/5 428/1/5
f 437/1/5 429/1/5 436/1/5
f 438/1/5 431/1/5 430/1/5
f 439/1/5 431/1/5 438/1/5
f 440/1/5 433/1/5 432/1/5
f 440/1/5 434/1/5 433/1/5
f 441/1/5 434/1/5 440/1/5
f 444/1/5 439/1/5 438/1/5
f 444/1/5 442/1/5 441/1/5
f 444/1/5 441/1/5 440/1/5
f 444/1/5 440/1/5 439/1/5
f 444/1/5 437/1/5 436/1/5
f 444/1/5 438/1/5 437/1/5
f 444/1/5 436/1/5 435/1/5
f 445/1/5 442/1/5 444/1/5
f 445/1/5 444/1/5 443/1/5
f 446/1/5 442/1/5 445/1/5
f 447/1/5 442/1/5 446/1/5
f 448/1/5 442/1/5 447/1/5
f 449/1/5 445/1/5 443/1/5
f 450/1/5 447/1/5 446/1/5
f 451/1/5 447/1/5 450/1/5
f 452/1/5 442/1/5 448/1/5
f 453/1/5 451/1/5 450/1/5
f 453/1/5 452/1/5 451/1/5
f 453/1/5 449/1/5 443/1/5
f 453/1/5 450/1/5 449/1/5
f 454/1/5 452/1/5 453/1/5
f 455/1/5 452/1/5 454/1/5
f 456/1/5 452/1/5 455/1/5
f 457/1/5 442/1/5 452/1/5
f 457/1/5 452/1/5 456/1/5
f 458/1/5 442/1/5 457/1/5
f 459/1/5 457/1/5 456/1/5
f 460/1/5 457/1/5 459/1/5
f 461/1/5 457/1/5 460/1/5
f 462/1/5 457/1/5 461/1/5
f 463/1/5 457/1/5 462/1/5
f 464/1/5 457/1/5 463/1/5
f 465/1/5 457/1/5 464/1/5
f 466/1/5 457/1/5 465/1/5
f 467/1/5 461/1/5 460/1/5
f 468/1/5 461/1/5 467/1/5
f 469/1/5 463/1/5 462/1/5
f 470/1/5 463/1/5 469/1/5
f 471/1/5 465/1/5 464/1/5
f 472/1/5 465/1/5 471/1/5
f 473/1/5 470/1/5 469/1/5
f 473/1/5 471/1/5 470/1/5
f 473/1/5 469/1/5 468/1/5
f 474/1/5 471/1/5 473/1/5
f 480/1/5 476/1/5 475/1/5
f 481/1/5 476/1/5 480/1/5
f 482/1/5 478/1/5 477/1/5
f 483/1/5 478/1/5 482/1/5
f 486/1/5 480/1/5 479/1/5
f 487/1/5 480/1/5 486/1/5
f 488/1/5 486/1/5 485/1/5
f 489/1/5 486/1/5 488/1/5
f 491/1/5 490/1/5 489/1/5
f 492/1/5 490/1/5 491/1/5
f 495/1/5 484/1/5 483/1/5
f 496/1/5 484/1/5 495/1/5
f 497/1/5 493/1/5 492/1/5
f 498/1/5 493/1/5 497/1/5
f 499/1/5 495/1/5 494/1/5
f 500/1/5 495/1/5 499/1/5
f 504/1/5 502/1/5 501/1/5
f 505/1/5 502/1/5 504/1/5
f 508/1/5 504/1/5 503/1/5
f 509/1/5 504/1/5 508/1/5
f 511/1/5 507/1/5 506/1/5
f 512/1/5 507/1/5 511/1/5
f 513/1/5 510/1/5 509/1/5
f 514/1/5 510/1/5 513/1/5
f 515/2/6 516/2/6 519/2/6
f 519/2/6 516/2/6 520/2/6
f 517/3/6 518/3/6 521/3/6
f 521/3/6 518/3/6 522/3/6
f 523/2/6 524/2/6 527/2/6
f 527/2/6 524/2/6 528/2/6
f 525/3/6 526/3/6 529/3/6
f 529/3/6 526/3/6 530/3/6
f 531/1/6 532/1/6 534/1/6
f 534/1/6 532/1/6 535/1/6
f 533/1/6 534/1/6 538/1/6
f 535/1/6 536/1/6 538/1/6
f 534/1/6 535/1/6 538/1/6
f 538/1/6 536/1/6 539/1/6
f 537/1/6 538/1/6 540/1/6
f 538/1/6 539/1/6 540/1/6
f 540/1/6 539/1/6 541/1/6
f 541/1/6 539/1/6 542/1/6
f 541/1/6 542/1/6 543/1/6
f 543/1/6 542/1/6 544/1/6
f 544/1/6 542/1/6 545/1/6
f 545/1/6 542/1/6 546/1/6
f 544/1/6 545/1/6 547/1/6
f 547/1/6 545/1/6 548/1/6
f 549/1/6 550/1/6 554/1/6
f 551/1/6 552/1/6 555/1/6
f 553/1/6 554/1/6 556/1/6
f 554/1/6 550/1/6 557/1/6
f 556/1/6 554/1/6 557/1/6
f 551/1/6 555/1/6 558/1/6
f 557/1/6 550/1/6 559/1/6
f 559/1/6 550/1/6 560/1/6
f 551/1/6 558/1/6 561/1/6
f 561/1/6 558/1/6 562/1/6
f 563/1/6 564/1/6 568/1/6
f 565/1/6 566/1/6 569/1/6
f 567/1/6 568/1/6 571/1/6
f 568/1/6 564/1/6 572/1/6
f 571/1/6 568/1/6 572/1/6
f 569/1/6 570/1/6 573/1/6
f 565/1/6 569/1/6 573/1/6
f 573/1/6 570/1/6 574/1/6
f 572/1/6 564/1/6 575/1/6
f 575/1/6 564/1/6 576/1/6
f 565/1/6 573/1/6 577/1/6
f 577/1/6 573/1/6 578/1/6
