# MagicaVoxel @ Ephtracy

# group
g kickbike

# material
mtllib kickbike.mtl
usemtl palette

# normals
vn -1 0 0
vn 1 0 0
vn 0 0 1
vn 0 0 -1
vn 0 -1 0
vn 0 1 0

# texcoords
vt 0.306641 0.5
vt 0.982422 0.5
vt 0.994141 0.5

# verts
v -11 10 2
v -11 10 1
v -11 13 2
v -11 13 1
v -10 9 2
v -10 9 1
v -10 10 2
v -10 10 1
v -10 13 2
v -10 13 1
v -10 14 2
v -10 14 1
v -9 11 3
v -9 11 2
v -9 11 1
v -9 11 -0
v -9 12 3
v -9 12 2
v -9 12 1
v -9 12 -0
v -7 14 2
v -7 14 1
v -7 15 2
v -7 15 1
v -6 13 2
v -6 13 1
v -6 14 2
v -6 14 1
v -5 12 2
v -5 12 1
v -5 13 2
v -5 13 1
v 11 12 2
v 11 12 1
v 11 13 2
v 11 13 1
v 12 10 2
v 12 10 1
v 12 11 2
v 12 11 1
v 12 13 2
v 12 13 1
v 12 14 2
v 12 14 1
v 13 9 2
v 13 9 1
v 13 10 2
v 13 10 1
v 13 14 2
v 13 14 1
v 13 15 2
v 13 15 1
v 14 12 3
v 14 12 2
v 14 12 1
v 14 12 -0
v 14 14 2
v 14 14 1
v 14 15 3
v 14 15 2
v 14 15 1
v 14 15 -0
v 14 29 5
v 14 29 2
v 14 29 1
v 14 29 -2
v 14 30 5
v 14 30 2
v 14 30 1
v 14 30 -2
v -7 9 2
v -7 9 1
v -7 10 2
v -7 10 1
v -7 13 2
v -7 13 1
v -7 14 2
v -7 14 1
v -6 10 2
v -6 10 1
v -6 11 2
v -6 11 1
v -6 12 2
v -6 12 1
v -6 13 2
v -6 13 1
v -6 14 2
v -6 14 1
v -6 15 2
v -6 15 1
v -5 13 2
v -5 13 1
v -5 14 2
v -5 14 1
v -4 12 2
v -4 12 1
v -4 13 2
v -4 13 1
v 14 11 3
v 14 11 2
v 14 11 1
v 14 11 -0
v 14 12 3
v 14 12 2
v 14 12 1
v 14 12 -0
v 15 12 3
v 15 12 2
v 15 12 1
v 15 12 -0
v 15 14 2
v 15 14 1
v 15 15 3
v 15 15 2
v 15 15 1
v 15 15 -0
v 15 29 5
v 15 29 2
v 15 29 1
v 15 29 -2
v 15 30 5
v 15 30 2
v 15 30 1
v 15 30 -2
v 16 9 2
v 16 9 1
v 16 10 2
v 16 10 1
v 16 13 2
v 16 13 1
v 16 14 2
v 16 14 1
v 17 10 2
v 17 10 1
v 17 13 2
v 17 13 1
v 14 29 5
v 14 30 5
v 15 29 5
v 15 30 5
v -9 11 3
v -9 12 3
v 14 11 3
v 14 12 3
v 14 15 3
v 15 12 3
v 15 15 3
v -11 10 2
v -11 13 2
v -10 9 2
v -10 10 2
v -10 13 2
v -10 14 2
v -9 11 2
v -9 12 2
v -7 9 2
v -7 10 2
v -7 13 2
v -7 14 2
v -7 15 2
v -6 10 2
v -6 11 2
v -6 12 2
v -6 13 2
v -6 14 2
v -6 15 2
v -5 12 2
v -5 13 2
v -5 14 2
v -4 12 2
v -4 13 2
v 11 12 2
v 11 13 2
v 12 10 2
v 12 11 2
v 12 12 2
v 12 13 2
v 12 14 2
v 13 9 2
v 13 10 2
v 13 13 2
v 13 14 2
v 13 15 2
v 14 11 2
v 14 12 2
v 14 14 2
v 14 15 2
v 14 29 2
v 15 12 2
v 15 14 2
v 15 15 2
v 15 29 2
v 16 9 2
v 16 10 2
v 16 13 2
v 16 14 2
v 17 10 2
v 17 13 2
v -11 10 1
v -11 13 1
v -10 9 1
v -10 10 1
v -10 13 1
v -10 14 1
v -9 11 1
v -9 12 1
v -7 9 1
v -7 10 1
v -7 13 1
v -7 14 1
v -7 15 1
v -6 10 1
v -6 11 1
v -6 12 1
v -6 13 1
v -6 14 1
v -6 15 1
v -5 12 1
v -5 13 1
v -5 14 1
v -4 12 1
v -4 13 1
v 11 12 1
v 11 13 1
v 12 10 1
v 12 11 1
v 12 12 1
v 12 13 1
v 12 14 1
v 13 9 1
v 13 10 1
v 13 13 1
v 13 14 1
v 13 15 1
v 14 11 1
v 14 12 1
v 14 14 1
v 14 15 1
v 14 29 1
v 15 12 1
v 15 14 1
v 15 15 1
v 15 29 1
v 16 9 1
v 16 10 1
v 16 13 1
v 16 14 1
v 17 10 1
v 17 13 1
v -9 11 -0
v -9 12 -0
v 14 11 -0
v 14 12 -0
v 14 15 -0
v 15 12 -0
v 15 15 -0
v 14 29 -2
v 14 30 -2
v 15 29 -2
v 15 30 -2
v -10 9 2
v -7 9 2
v 13 9 2
v 16 9 2
v -10 9 1
v -7 9 1
v 13 9 1
v 16 9 1
v -11 10 2
v -10 10 2
v -7 10 2
v -6 10 2
v 12 10 2
v 13 10 2
v 16 10 2
v 17 10 2
v -11 10 1
v -10 10 1
v -7 10 1
v -6 10 1
v 12 10 1
v 13 10 1
v 16 10 1
v 17 10 1
v -9 11 3
v 14 11 3
v -9 11 2
v -6 11 2
v 12 11 2
v 14 11 2
v -9 11 1
v -6 11 1
v 12 11 1
v 14 11 1
v -9 11 -0
v 14 11 -0
v 14 12 3
v 15 12 3
v 14 12 2
v 15 12 2
v 14 12 1
v 15 12 1
v 14 12 -0
v 15 12 -0
v -6 13 2
v -5 13 2
v -6 13 1
v -5 13 1
v -7 14 2
v -6 14 2
v -7 14 1
v -6 14 1
v 14 29 5
v 15 29 5
v 14 29 2
v 15 29 2
v 14 29 1
v 15 29 1
v 14 29 -2
v 15 29 -2
v -9 12 3
v 14 12 3
v -9 12 2
v -6 12 2
v -5 12 2
v -4 12 2
v 11 12 2
v 12 12 2
v 14 12 2
v -9 12 1
v -6 12 1
v -5 12 1
v -4 12 1
v 11 12 1
v 12 12 1
v 14 12 1
v -9 12 -0
v 14 12 -0
v -11 13 2
v -10 13 2
v -7 13 2
v -6 13 2
v -5 13 2
v -4 13 2
v 11 13 2
v 12 13 2
v 16 13 2
v 17 13 2
v -11 13 1
v -10 13 1
v -7 13 1
v -6 13 1
v -5 13 1
v -4 13 1
v 11 13 1
v 12 13 1
v 16 13 1
v 17 13 1
v -10 14 2
v -7 14 2
v -6 14 2
v -5 14 2
v 12 14 2
v 13 14 2
v 15 14 2
v 16 14 2
v -10 14 1
v -7 14 1
v -6 14 1
v -5 14 1
v 12 14 1
v 13 14 1
v 15 14 1
v 16 14 1
v 14 15 3
v 15 15 3
v -7 15 2
v -6 15 2
v 13 15 2
v 14 15 2
v 15 15 2
v -7 15 1
v -6 15 1
v 13 15 1
v 14 15 1
v 15 15 1
v 14 15 -0
v 15 15 -0
v 14 30 5
v 15 30 5
v 14 30 2
v 15 30 2
v 14 30 1
v 15 30 1
v 14 30 -2
v 15 30 -2

# faces
f 3/3/1 2/3/1 1/3/1
f 4/3/1 2/3/1 3/3/1
f 7/3/1 6/3/1 5/3/1
f 8/3/1 6/3/1 7/3/1
f 11/3/1 10/3/1 9/3/1
f 12/3/1 10/3/1 11/3/1
f 17/1/1 14/1/1 13/1/1
f 18/1/1 14/1/1 17/1/1
f 19/1/1 16/1/1 15/1/1
f 20/1/1 16/1/1 19/1/1
f 23/1/1 22/1/1 21/1/1
f 24/1/1 22/1/1 23/1/1
f 27/1/1 26/1/1 25/1/1
f 28/1/1 26/1/1 27/1/1
f 31/1/1 30/1/1 29/1/1
f 32/1/1 30/1/1 31/1/1
f 35/1/1 34/1/1 33/1/1
f 36/1/1 34/1/1 35/1/1
f 39/3/1 38/3/1 37/3/1
f 40/3/1 38/3/1 39/3/1
f 43/1/1 42/1/1 41/1/1
f 44/1/1 42/1/1 43/1/1
f 47/3/1 46/3/1 45/3/1
f 48/3/1 46/3/1 47/3/1
f 51/1/1 50/1/1 49/1/1
f 52/1/1 50/1/1 51/1/1
f 57/1/1 54/1/1 53/1/1
f 58/1/1 56/1/1 55/1/1
f 59/1/1 57/1/1 53/1/1
f 60/1/1 57/1/1 59/1/1
f 61/1/1 56/1/1 58/1/1
f 62/1/1 56/1/1 61/1/1
f 64/1/1 61/1/1 60/1/1
f 65/1/1 61/1/1 64/1/1
f 67/2/1 64/2/1 63/2/1
f 68/1/1 65/1/1 64/1/1
f 68/2/1 64/2/1 67/2/1
f 69/2/1 66/2/1 65/2/1
f 69/1/1 65/1/1 68/1/1
f 70/2/1 66/2/1 69/2/1
f 71/3/2 72/3/2 73/3/2
f 73/3/2 72/3/2 74/3/2
f 75/3/2 76/3/2 77/3/2
f 77/3/2 76/3/2 78/3/2
f 79/3/2 80/3/2 81/3/2
f 81/3/2 80/3/2 82/3/2
f 83/3/2 84/3/2 85/3/2
f 85/3/2 84/3/2 86/3/2
f 87/1/2 88/1/2 89/1/2
f 89/1/2 88/1/2 90/1/2
f 91/1/2 92/1/2 93/1/2
f 93/1/2 92/1/2 94/1/2
f 95/1/2 96/1/2 97/1/2
f 97/1/2 96/1/2 98/1/2
f 99/1/2 100/1/2 103/1/2
f 103/1/2 100/1/2 104/1/2
f 101/1/2 102/1/2 105/1/2
f 105/1/2 102/1/2 106/1/2
f 107/1/2 108/1/2 111/1/2
f 109/1/2 110/1/2 112/1/2
f 107/1/2 111/1/2 113/1/2
f 111/1/2 112/1/2 113/1/2
f 113/1/2 112/1/2 114/1/2
f 112/1/2 110/1/2 115/1/2
f 114/1/2 112/1/2 115/1/2
f 115/1/2 110/1/2 116/1/2
f 114/1/2 115/1/2 118/1/2
f 118/1/2 115/1/2 119/1/2
f 117/2/2 118/2/2 121/2/2
f 118/1/2 119/1/2 122/1/2
f 121/2/2 118/2/2 122/2/2
f 119/2/2 120/2/2 123/2/2
f 122/1/2 119/1/2 123/1/2
f 123/2/2 120/2/2 124/2/2
f 125/3/2 126/3/2 127/3/2
f 127/3/2 126/3/2 128/3/2
f 129/3/2 130/3/2 131/3/2
f 131/3/2 130/3/2 132/3/2
f 133/3/2 134/3/2 135/3/2
f 135/3/2 134/3/2 136/3/2
f 139/2/3 138/2/3 137/2/3
f 140/2/3 138/2/3 139/2/3
f 143/1/3 142/1/3 141/1/3
f 144/1/3 142/1/3 143/1/3
f 146/1/3 145/1/3 144/1/3
f 147/1/3 145/1/3 146/1/3
f 151/3/3 149/3/3 148/3/3
f 152/3/3 149/3/3 151/3/3
f 154/3/3 151/3/3 150/3/3
f 154/3/3 153/3/3 152/3/3
f 154/3/3 152/3/3 151/3/3
f 155/3/3 153/3/3 154/3/3
f 156/3/3 154/3/3 150/3/3
f 157/3/3 154/3/3 156/3/3
f 158/3/3 153/3/3 155/3/3
f 159/3/3 153/3/3 158/3/3
f 161/3/3 154/3/3 157/3/3
f 162/3/3 154/3/3 161/3/3
f 163/3/3 158/3/3 155/3/3
f 164/3/3 158/3/3 163/3/3
f 165/1/3 160/1/3 159/1/3
f 166/1/3 160/1/3 165/1/3
f 168/1/3 165/1/3 164/1/3
f 169/1/3 165/1/3 168/1/3
f 170/1/3 168/1/3 167/1/3
f 171/1/3 168/1/3 170/1/3
f 176/1/3 173/1/3 172/1/3
f 177/1/3 173/1/3 176/1/3
f 180/3/3 175/3/3 174/3/3
f 181/3/3 177/3/3 176/3/3
f 181/1/3 178/1/3 177/1/3
f 182/1/3 178/1/3 181/1/3
f 184/3/3 180/3/3 179/3/3
f 184/3/3 175/3/3 180/3/3
f 185/3/3 182/3/3 181/3/3
f 185/3/3 181/3/3 176/3/3
f 186/1/3 183/1/3 182/1/3
f 186/3/3 182/3/3 185/3/3
f 187/1/3 183/1/3 186/1/3
f 189/3/3 185/3/3 184/3/3
f 191/1/3 188/1/3 187/1/3
f 192/1/3 188/1/3 191/1/3
f 193/3/3 190/3/3 189/3/3
f 193/3/3 184/3/3 179/3/3
f 193/3/3 189/3/3 184/3/3
f 194/3/3 190/3/3 193/3/3
f 195/3/3 190/3/3 194/3/3
f 196/3/3 190/3/3 195/3/3
f 197/3/3 195/3/3 194/3/3
f 198/3/3 195/3/3 197/3/3
f 199/3/4 200/3/4 202/3/4
f 202/3/4 200/3/4 203/3/4
f 201/3/4 202/3/4 205/3/4
f 203/3/4 204/3/4 205/3/4
f 202/3/4 203/3/4 205/3/4
f 205/3/4 204/3/4 206/3/4
f 201/3/4 205/3/4 207/3/4
f 207/3/4 205/3/4 208/3/4
f 206/3/4 204/3/4 209/3/4
f 209/3/4 204/3/4 210/3/4
f 208/3/4 205/3/4 212/3/4
f 212/3/4 205/3/4 213/3/4
f 206/3/4 209/3/4 214/3/4
f 214/3/4 209/3/4 215/3/4
f 210/1/4 211/1/4 216/1/4
f 216/1/4 211/1/4 217/1/4
f 215/1/4 216/1/4 219/1/4
f 219/1/4 216/1/4 220/1/4
f 218/1/4 219/1/4 221/1/4
f 221/1/4 219/1/4 222/1/4
f 223/1/4 224/1/4 227/1/4
f 227/1/4 224/1/4 228/1/4
f 225/3/4 226/3/4 231/3/4
f 227/3/4 228/3/4 232/3/4
f 228/1/4 229/1/4 232/1/4
f 232/1/4 229/1/4 233/1/4
f 230/3/4 231/3/4 235/3/4
f 231/3/4 226/3/4 235/3/4
f 232/3/4 233/3/4 236/3/4
f 227/3/4 232/3/4 236/3/4
f 233/1/4 234/1/4 237/1/4
f 236/3/4 233/3/4 237/3/4
f 237/1/4 234/1/4 238/1/4
f 235/3/4 236/3/4 240/3/4
f 238/1/4 239/1/4 242/1/4
f 242/1/4 239/1/4 243/1/4
f 240/3/4 241/3/4 244/3/4
f 230/3/4 235/3/4 244/3/4
f 235/3/4 240/3/4 244/3/4
f 244/3/4 241/3/4 245/3/4
f 245/3/4 241/3/4 246/3/4
f 246/3/4 241/3/4 247/3/4
f 245/3/4 246/3/4 248/3/4
f 248/3/4 246/3/4 249/3/4
f 250/1/4 251/1/4 252/1/4
f 252/1/4 251/1/4 253/1/4
f 253/1/4 254/1/4 255/1/4
f 255/1/4 254/1/4 256/1/4
f 257/2/4 258/2/4 259/2/4
f 259/2/4 258/2/4 260/2/4
f 265/3/5 262/3/5 261/3/5
f 266/3/5 262/3/5 265/3/5
f 267/3/5 264/3/5 263/3/5
f 268/3/5 264/3/5 267/3/5
f 277/3/5 270/3/5 269/3/5
f 278/3/5 270/3/5 277/3/5
f 279/3/5 272/3/5 271/3/5
f 280/3/5 272/3/5 279/3/5
f 281/3/5 274/3/5 273/3/5
f 282/3/5 274/3/5 281/3/5
f 283/3/5 276/3/5 275/3/5
f 284/3/5 276/3/5 283/3/5
f 287/1/5 286/1/5 285/1/5
f 288/1/5 286/1/5 287/1/5
f 289/1/5 286/1/5 288/1/5
f 290/1/5 286/1/5 289/1/5
f 292/1/5 289/1/5 288/1/5
f 293/1/5 289/1/5 292/1/5
f 295/1/5 292/1/5 291/1/5
f 295/1/5 294/1/5 293/1/5
f 295/1/5 293/1/5 292/1/5
f 296/1/5 294/1/5 295/1/5
f 299/1/5 298/1/5 297/1/5
f 300/1/5 298/1/5 299/1/5
f 303/1/5 302/1/5 301/1/5
f 304/1/5 302/1/5 303/1/5
f 307/1/5 306/1/5 305/1/5
f 308/1/5 306/1/5 307/1/5
f 311/1/5 310/1/5 309/1/5
f 312/1/5 310/1/5 311/1/5
f 315/2/5 314/2/5 313/2/5
f 316/2/5 314/2/5 315/2/5
f 319/2/5 318/2/5 317/2/5
f 320/2/5 318/2/5 319/2/5
f 321/1/6 322/1/6 323/1/6
f 323/1/6 322/1/6 324/1/6
f 324/1/6 322/1/6 325/1/6
f 325/1/6 322/1/6 326/1/6
f 326/1/6 322/1/6 327/1/6
f 327/1/6 322/1/6 328/1/6
f 328/1/6 322/1/6 329/1/6
f 324/1/6 325/1/6 331/1/6
f 331/1/6 325/1/6 332/1/6
f 326/1/6 327/1/6 333/1/6
f 333/1/6 327/1/6 334/1/6
f 331/1/6 332/1/6 337/1/6
f 335/1/6 336/1/6 337/1/6
f 334/1/6 335/1/6 337/1/6
f 333/1/6 334/1/6 337/1/6
f 332/1/6 333/1/6 337/1/6
f 330/1/6 331/1/6 337/1/6
f 337/1/6 336/1/6 338/1/6
f 339/3/6 340/3/6 349/3/6
f 349/3/6 340/3/6 350/3/6
f 341/3/6 342/3/6 351/3/6
f 351/3/6 342/3/6 352/3/6
f 343/1/6 344/1/6 353/1/6
f 353/1/6 344/1/6 354/1/6
f 345/1/6 346/1/6 355/1/6
f 355/1/6 346/1/6 356/1/6
f 347/3/6 348/3/6 357/3/6
f 357/3/6 348/3/6 358/3/6
f 359/3/6 360/3/6 367/3/6
f 367/3/6 360/3/6 368/3/6
f 361/1/6 362/1/6 369/1/6
f 369/1/6 362/1/6 370/1/6
f 363/1/6 364/1/6 371/1/6
f 371/1/6 364/1/6 372/1/6
f 365/3/6 366/3/6 373/3/6
f 373/3/6 366/3/6 374/3/6
f 375/1/6 376/1/6 380/1/6
f 380/1/6 376/1/6 381/1/6
f 377/1/6 378/1/6 382/1/6
f 382/1/6 378/1/6 383/1/6
f 379/1/6 380/1/6 384/1/6
f 384/1/6 380/1/6 385/1/6
f 385/1/6 386/1/6 387/1/6
f 387/1/6 386/1/6 388/1/6
f 389/2/6 390/2/6 391/2/6
f 391/2/6 390/2/6 392/2/6
f 391/1/6 392/1/6 393/1/6
f 393/1/6 392/1/6 394/1/6
f 393/2/6 394/2/6 395/2/6
f 395/2/6 394/2/6 396/2/6
